<svg xmlns="http://www.w3.org/2000/svg"  viewBox="0 0 48 48" width="36px" height="36px" fill="#d6e5e5"><path fill="#d6e5e5" d="M10.209,44.132c5,0,3.146,0.164,7.645,0.16c3.752-0.004,5.155-0.842,7.845-0.689	c2.228,0.127,5.932,0.689,8.159,0.542c3.044-0.2,7.326,1.134,9.489-1.663c1.367-1.768,1.236-4.792,1.344-6.964	c0.108-2.172-0.378-5.738-0.222-7.907c0.439-6.082-0.805-7.115-0.576-12.749c0.083-2.056,0.604-7.625-0.683-9.23	c-1.24-1.545-3.227-2.06-6.598-2.017c-4.447,0.057-7.87,0.134-12.317,0.111c-1.699-0.009-3.553-0.098-5.253-0.106	c-1.371-0.007-4.528,0.257-5.899,0.279c-1.275,0.02-6.118,0.435-7.447,1.95c-2.814,3.208-1.98,10.219-1.997,10.755	c-0.161,5.172,0.012,9.351,0,12c-0.016,3.513,0.174,8.442,0.51,10.529C4.693,42.134,6.3,44.324,10.209,44.132"/><path fill="#2b8c5e" d="M24.758,7.966c-4.747,0.061-9.908,1.123-12.931,4.782c-1.141,1.381-2.233,3.09-2.912,4.748	c-1.071,2.614-1.671,5.377-1.214,8.165c0.359,2.192,1.302,4.955,2.477,6.84c1.493,2.397,2.182,3.19,4.546,4.735	c3.006,1.965,6.359,2.993,9.951,2.991c2.339-0.001,6.247-1.176,8.291-2.312c2.216-1.231,4.828-4.51,5.771-5.937	c3.364-5.09,3.057-9.778,0.704-15.104C36.849,11.004,32.39,8.445,24.758,7.966"/><path fill="#38b47b" d="M22.733,14.39c-3.853,0.501-7.995,3.867-8.743,7.68s0.918,7.93,3.948,10.361	c0.753,0.604,1.6,1.121,2.542,1.337c1.407,0.323,3.819,1.052,6.318,0.121c4.612-1.719,5.503-3.568,6.775-7.397	c0.896-2.697,0.391-6.446-1.571-8.503C29.669,15.542,26.673,13.908,22.733,14.39"/><path fill="#010101" d="M17.697,44.792c-2.088,0-2.753-0.037-3.457-0.077c-0.731-0.04-1.486-0.083-4.019-0.083	c-3.706,0.169-5.896-1.646-6.506-5.42c-0.344-2.14-0.533-7.075-0.516-10.611c0.004-0.84-0.011-1.833-0.028-2.963	c-0.037-2.456-0.082-5.512,0.028-9.051c0.001-0.057-0.008-0.187-0.02-0.377C2.856,11.104,3.576,7.507,5.32,5.519	c1.697-1.936,7.754-2.119,7.815-2.12c0.615-0.01,1.592-0.068,2.604-0.13c1.248-0.075,2.561-0.161,3.304-0.148	c0.848,0.004,1.734,0.028,2.621,0.053c0.89,0.024,1.781,0.049,2.632,0.053c3.419,0.019,6.178-0.022,9.373-0.069l2.936-0.042	c3.679-0.062,5.7,0.592,6.994,2.205c1.142,1.422,1.034,5.179,0.843,8.588c-0.021,0.374-0.04,0.705-0.05,0.975	c-0.105,2.603,0.111,4.23,0.321,5.806c0.241,1.811,0.491,3.682,0.254,6.959c-0.08,1.101,0.015,2.618,0.105,4.085	c0.083,1.352,0.17,2.748,0.118,3.812c-0.016,0.317-0.026,0.653-0.038,1c-0.065,2.054-0.146,4.609-1.41,6.245	c-1.747,2.26-4.685,2.079-7.275,1.916c-0.923-0.058-1.795-0.112-2.576-0.06c-1.517,0.101-3.683-0.118-5.594-0.311	c-0.967-0.098-1.88-0.189-2.626-0.232c-1.28-0.07-2.257,0.089-3.388,0.275c-1.17,0.193-2.497,0.413-4.427,0.415	C17.801,44.792,17.749,44.792,17.697,44.792z M10.197,43.632h0.012c2.57,0,3.341,0.043,4.087,0.085	c0.706,0.04,1.378,0.091,3.558,0.075c1.849-0.002,3.133-0.214,4.266-0.401c1.141-0.188,2.218-0.368,3.608-0.287	c0.759,0.043,1.687,0.137,2.669,0.235c1.872,0.188,3.994,0.398,5.429,0.308c0.845-0.053,1.748,0.001,2.704,0.06	c2.457,0.153,5,0.311,6.422-1.529c1.066-1.38,1.142-3.756,1.202-5.665c0.011-0.354,0.022-0.695,0.038-1.018	c0.05-1.008-0.035-2.377-0.117-3.701c-0.093-1.5-0.188-3.051-0.104-4.219c0.229-3.175-0.002-4.913-0.248-6.754	c-0.215-1.618-0.438-3.29-0.329-5.979c0.011-0.273,0.03-0.609,0.051-0.99c0.121-2.162,0.373-6.663-0.625-7.905	c-1.077-1.344-2.867-1.887-6.201-1.831l-2.934,0.041c-3.2,0.048-5.968,0.087-9.392,0.07c-0.858-0.004-1.757-0.028-2.655-0.053	c-0.879-0.024-1.758-0.049-2.598-0.053c-0.745,0.001-2.008,0.073-3.239,0.147c-1.029,0.062-2.023,0.121-2.649,0.131	c-1.494,0.024-5.948,0.49-7.079,1.78c-1.563,1.781-2.201,5.136-1.895,9.969c0.015,0.239,0.024,0.402,0.022,0.471	c-0.109,3.517-0.064,6.56-0.028,9.005c0.017,1.138,0.032,2.137,0.028,2.981c-0.016,3.421,0.172,8.388,0.503,10.448	c0.522,3.237,2.32,4.728,5.482,4.58L10.197,43.632z"/><path fill="#71c598" d="M22.241,19.661c-1.181,0.409-2.073,1.034-2.716,2.233c-0.204,0.38-0.577,1.405-0.63,1.833	c-0.078,0.639,0.137,1.678,0.381,2.274c0.37,0.903,0.855,1.422,1.695,1.918c0.579,0.342,1.269,0.445,1.941,0.466	c0.9,0.028,1.821-0.084,2.635-0.47c1.973-0.936,2.915-3.544,2.078-5.561C26.79,20.338,24.366,19.161,22.241,19.661"/><path fill="#010101" d="M24.663,40.727c-3.659,0-7.095-1.033-10.213-3.071c-2.437-1.593-3.191-2.474-4.697-4.89	c-1.149-1.846-2.148-4.603-2.546-7.023c-0.425-2.595-0.018-5.354,1.245-8.436c0.66-1.61,1.722-3.343,2.99-4.877	c2.655-3.214,7.133-4.884,13.31-4.964c0.013-0.002,0.025,0,0.038,0.001c7.962,0.5,12.48,3.253,15.109,9.205	c2.646,5.993,2.417,10.799-0.745,15.582c-0.757,1.146-3.476,4.726-5.946,6.099c-2.02,1.122-6.021,2.373-8.534,2.374	C24.67,40.727,24.667,40.727,24.663,40.727z M24.746,8.466c-5.859,0.079-10.076,1.627-12.533,4.601	c-1.188,1.438-2.221,3.121-2.835,4.619c-1.19,2.906-1.578,5.488-1.183,7.895c0.371,2.266,1.339,4.94,2.407,6.656	c1.433,2.3,2.052,3.05,4.395,4.581c2.953,1.931,6.206,2.909,9.667,2.909c0.003,0,0.007,0,0.01,0c2.292-0.001,6.14-1.188,8.049-2.249	c2.124-1.18,4.688-4.4,5.597-5.774c2.993-4.529,3.191-8.904,0.664-14.627C36.529,11.519,32.271,8.942,24.746,8.466z"/><path fill="#010101" d="M23.405,24.825c-0.111,0-0.224-0.037-0.316-0.113c-0.214-0.176-0.245-0.49-0.07-0.704	c0.78-0.95,2.124-2.175,3.012-2.985c0.376-0.343,0.666-0.605,0.778-0.728c0.776-0.844,1.307-1.306,1.98-1.891	c0.263-0.229,0.548-0.476,0.879-0.773c0.729-0.656,4.439-4.026,5.97-6.006c0.169-0.219,0.482-0.259,0.701-0.09	s0.259,0.482,0.09,0.701c-1.583,2.048-5.353,5.472-6.092,6.138c-0.335,0.302-0.625,0.554-0.892,0.785	c-0.649,0.564-1.163,1.01-1.9,1.812c-0.122,0.133-0.434,0.418-0.841,0.789c-0.868,0.791-2.179,1.987-2.913,2.882	C23.693,24.763,23.549,24.825,23.405,24.825z"/><path fill="#010101" d="M23.169,28.89c-0.09,0-0.18-0.001-0.272-0.004c-0.919-0.029-1.612-0.2-2.181-0.536	c-0.967-0.571-1.501-1.177-1.903-2.159c-0.273-0.669-0.503-1.796-0.414-2.524c0.062-0.514,0.465-1.599,0.685-2.009	c0.652-1.217,1.576-1.979,2.993-2.469c0.016-0.006,0.033-0.01,0.049-0.014c2.372-0.562,5.047,0.781,5.962,2.988	c0.941,2.271-0.146,5.171-2.326,6.205C25.031,28.715,24.16,28.89,23.169,28.89z M22.38,20.143c-1.164,0.406-1.886,1.002-2.414,1.987	c-0.186,0.346-0.532,1.312-0.574,1.657c-0.065,0.533,0.131,1.495,0.348,2.024c0.318,0.778,0.707,1.217,1.487,1.677	c0.418,0.248,0.959,0.374,1.703,0.397c0.945,0.037,1.751-0.112,2.404-0.422c1.723-0.816,2.578-3.115,1.831-4.918	C26.433,20.78,24.292,19.704,22.38,20.143z"/><path fill="#010101" d="M24.162,34.848c-1.318,0-2.496-0.282-3.398-0.499l-0.396-0.094c-0.901-0.207-1.798-0.676-2.743-1.435	c-3.231-2.593-4.89-6.952-4.126-10.848c0.751-3.83,4.95-7.53,9.169-8.079c0.001,0,0.002,0,0.004,0	c3.635-0.443,6.894,0.817,9.691,3.75c1.977,2.072,2.7,5.943,1.683,9.005c-1.264,3.805-2.152,5.875-7.074,7.709	C26,34.72,25.048,34.848,24.162,34.848z M22.796,14.886c-3.832,0.499-7.639,3.832-8.315,7.28c-0.694,3.539,0.821,7.508,3.771,9.875	c0.825,0.662,1.59,1.067,2.34,1.239l0.405,0.096c1.392,0.335,3.493,0.841,5.626,0.044c4.503-1.678,5.278-3.483,6.475-7.086	c0.894-2.692,0.254-6.206-1.458-8.001C29.038,15.605,26.145,14.476,22.796,14.886z"/></svg>